<svg xmlns="http://www.w3.org/2000/svg" version="1.1" xmlns:xlink="http://www.w3.org/1999/xlink" xmlns:svgjs="http://svgjs.com/svgjs" width="1920" height="1080" preserveAspectRatio="none" viewBox="0 0 1920 1080"><g mask="url(&quot;#SvgjsMask1005&quot;)" fill="none"><rect width="1920" height="1080" x="0" y="0" fill="rgba(161, 161, 170, 1)"></rect><path d="M623.08 0C722.85 52.82 736.97 142.94 810 142.94C857.43 142.94 808.07 29.61 864 0C943.07 -41.86 972 0 1080 0C1215 0 1215 0 1350 0C1485 0 1485 0 1620 0C1755 0 1755 0 1890 0C1983.82 0 2077.63 -42.37 2077.63 0C2077.63 64.07 1988.13 111 1890 212.88C1858.1 246 1817.56 236.78 1817.56 270C1817.56 313.25 1837.49 355.58 1890 365.81C2008.71 388.95 2082.79 286.93 2160 336.74C2217.79 374.02 2160 438.37 2160 540C2160 675 2160 675 2160 810C2160 945 2227.5 1012.5 2160 1080C2092.5 1147.5 2025 1080 1890 1080C1755 1080 1755 1080 1620 1080C1485 1080 1485 1080 1350 1080C1215 1080 1215 1080 1080 1080C945 1080 945 1080 810 1080C675 1080 675 1080 540 1080C429.87 1080 427.53 1089.93 319.74 1080C292.53 1077.49 292.69 1055.13 270 1055.13C256.01 1055.13 262.88 1078.48 246.38 1080C127.88 1090.92 58.78 1144.41 0 1080C-64.41 1009.41 0 945 0 810C0 675 0 675 0 540C0 405 0 405 0 270C0 135 -67.5 67.5 0 0C67.5 -67.5 135 0 270 0C405 0 405 0 540 0C581.54 0 587.85 -18.65 623.08 0" stroke="rgba(113, 113, 122, 1)" stroke-width="2"></path><path d="M1080 474C1034.64 474 999.98 493.21 996.34 540C986.91 661.21 1017.52 678.61 1053.87 810C1059.35 829.81 1064.86 842.4 1080 842.4C1099.81 842.4 1112.95 834.26 1123.78 810C1180.45 683.06 1229.33 650 1215 540C1207.44 482 1143.97 474 1080 474" stroke="rgba(113, 113, 122, 1)" stroke-width="2"></path><path d="M1620 428.82C1553.42 428.82 1503.51 466.54 1488.14 540C1463.63 657.13 1490.53 692.68 1540.23 810C1556.46 848.32 1580.58 851.29 1620 851.29C1656.28 851.29 1675.78 845.67 1691.63 810C1744.93 690.02 1780.15 656.35 1758.29 540C1744.34 465.76 1688.5 428.82 1620 428.82" stroke="rgba(113, 113, 122, 1)" stroke-width="2"></path><path d="M240 0C262.2 3 256.56 17.09 270 36.49C350.1 152.09 339.91 160.61 427.09 270C474.91 329.99 470.37 354.89 540 375.25C661.83 410.87 694.66 416.99 810 381.95C867.91 364.36 854.65 329.64 886.5 270C956.65 138.66 934.76 110.56 1014 0C1031.51 -24.44 1047 0 1080 0C1215 0 1215 0 1350 0C1485 0 1485 0 1620 0C1755 0 1755 0 1890 0C1926.61 0 1963.22 -16.53 1963.22 0C1963.22 25.01 1931.64 46.85 1890 83.08C1776.49 181.85 1771.36 176.4 1652.93 270C1636.36 283.1 1637.71 284.99 1620 296.47C1486.25 383.17 1494.21 438.98 1350 466.36C1224.21 490.24 1203.41 378.75 1080 399C979.04 415.57 931.93 446.65 901.27 540C864.43 652.15 894.97 687.56 945 810C984.34 906.26 1001.77 977.4 1080 977.4C1182.38 977.4 1224.81 914.75 1306.22 810C1359.81 741.05 1329.77 630 1350 630C1370.07 630 1331.24 748.1 1386.82 810C1466.24 898.46 1504.78 930.71 1620 930.71C1726.06 930.71 1754.72 894.72 1829.39 810C1889.72 741.55 1859.33 717.07 1890 624.38C1904 582.07 1885.48 566.08 1918.72 540C2020.48 460.18 2077.76 412.58 2160 412.58C2198.4 412.58 2160 476.29 2160 540C2160 675 2160 675 2160 810C2160 945 2209.63 994.63 2160 1080C2131.14 1129.63 2062.03 1116.63 2003.02 1080C1927.03 1032.83 1939.21 912.41 1890 912.41C1845.32 912.41 1880.64 1039.4 1815.23 1080C1745.64 1123.19 1717.61 1080 1620 1080C1485 1080 1485 1080 1350 1080C1215 1080 1215 1080 1080 1080C945 1080 945 1080 810 1080C675 1080 675 1080 540 1080C518.68 1080 497.37 1090.55 497.37 1080C497.37 1062.62 522.32 1054.42 540 1024.14C601.14 919.42 655 907.29 655 810C655 747.6 594.67 704.75 540 704.75C490.82 704.75 497.58 761.3 447.31 810C362.58 892.08 355.76 885.16 270 966.32C213.11 1020.16 228.4 1052.04 162 1080C93.4 1108.88 30.38 1130.63 0 1080C-50.63 995.63 0 945 0 810C0 760.26 -9.65 758.77 0 710.53C17.35 623.77 54 623.88 54 540C54 476.31 13.04 480.58 0 415.38C-13.96 345.58 0 342.69 0 270C0 135 -63.53 71.47 0 0C56.47 -63.53 127.2 -15.24 240 0" stroke="rgba(113, 113, 122, 1)" stroke-width="2"></path><path d="M165 270C180.62 221.53 224.37 218.92 270 218.92C294.05 218.92 282.7 248.28 304.36 270C417.7 383.65 404.59 413.99 540 489.66C646.16 548.99 787.5 514.83 787.5 540C787.5 565.17 642.12 527.81 540 590.34C421.66 662.81 446.66 703.55 346.57 810C311.66 847.13 312.86 877.5 270 877.5C205.25 877.5 150.06 871.02 131.35 810C98.31 702.27 158.05 675.57 166.5 540C174.88 405.57 128.87 382.07 165 270" stroke="rgba(113, 113, 122, 1)" stroke-width="2"></path><path d="M90 0C90 51.91 24.12 155.77 0 155.77C-20.88 155.77 -28.52 49.36 0 0C16.48 -28.52 90 -25.97 90 0" stroke="rgba(113, 113, 122, 1)" stroke-width="2"></path><path d="M999 270C999 204.25 1028.34 185.51 1080 118.13C1131.84 50.51 1132.38 32.21 1206 0C1267.38 -26.85 1278 0 1350 0C1419.68 0 1489.35 -27.59 1489.35 0C1489.35 37.86 1417.63 63.4 1350 130.91C1282.38 198.4 1294.73 215.74 1218.86 270C1159.73 312.29 1146.49 324 1080 324C1036.56 324 999 307.19 999 270" stroke="rgba(113, 113, 122, 1)" stroke-width="2"></path><path d="M2062.34 540C2062.34 496.87 2126.71 488.43 2160 488.43C2175.54 488.43 2160 514.22 2160 540C2160 654.75 2183.4 769.5 2160 769.5C2134.57 769.5 2062.34 637.4 2062.34 540" stroke="rgba(113, 113, 122, 1)" stroke-width="2"></path><path d="M780 810C811.47 698.68 795.95 578.57 810 578.57C824.02 578.57 792.43 705.65 836.13 810C897.43 956.36 1027.95 997.83 1020 1080C1014.89 1132.83 915 1080 810 1080C739.13 1080 673.15 1124.1 668.25 1080C658.15 989.1 740.59 949.39 780 810" stroke="rgba(113, 113, 122, 1)" stroke-width="2"></path><path d="M0 928.54C20.54 928.54 77.63 1027.99 77.63 1080C77.63 1103.72 13.15 1105.66 0 1080C-25.66 1029.93 -18.28 928.54 0 928.54" stroke="rgba(113, 113, 122, 1)" stroke-width="2"></path><path d="M1391.54 1080C1391.54 1062.14 1512.06 1010.12 1620 1010.12C1671.98 1010.12 1711.38 1060.53 1711.38 1080C1711.38 1095.47 1665.69 1080 1620 1080C1505.77 1080 1391.54 1097.08 1391.54 1080" stroke="rgba(113, 113, 122, 1)" stroke-width="2"></path></g><defs><mask id="SvgjsMask1005"><rect width="1920" height="1080" fill="#ffffff"></rect></mask></defs></svg>