<svg xmlns="http://www.w3.org/2000/svg" version="1.1" xmlns:xlink="http://www.w3.org/1999/xlink" xmlns:svgjs="http://svgjs.com/svgjs" width="1920" height="1080" preserveAspectRatio="none" viewBox="0 0 1920 1080"><g mask="url(&quot;#SvgjsMask1002&quot;)" fill="none"><rect width="1920" height="1080" x="0" y="0" fill="rgba(113, 113, 122, 1)"></rect><path d="M494.46 0C564.3 61.11 482.96 236.25 540 236.25C616.91 236.25 644.64 103 762.35 0C779.64 -15.13 786.17 0 810 0C945 0 945 0 1080 0C1215 0 1215 0 1350 0C1485 0 1485 0 1620 0C1718.71 0 1730.87 -26.71 1817.42 0C1865.87 14.95 1851.61 83.33 1890 83.33C1932.31 83.33 1924.55 16.75 1978.82 0C2059.55 -24.92 2123.62 -54.21 2160 0C2214.21 80.79 2160 135 2160 270C2160 405 2160 405 2160 540C2160 675 2160 675 2160 810C2160 945 2227.5 1012.5 2160 1080C2092.5 1147.5 2025 1080 1890 1080C1755 1080 1755 1080 1620 1080C1485 1080 1485 1080 1350 1080C1215 1080 1215 1080 1080 1080C945 1080 945 1080 810 1080C715.26 1080 684.96 1125.64 620.53 1080C549.96 1030.01 611.96 902.17 540 888.75C436.7 869.48 404.15 949.96 270 1014.63C205.79 1045.59 210.61 1063.7 143.27 1080C75.61 1096.38 29.35 1122.29 0 1080C-42.29 1019.05 -10.12 974.7 0 873.53C3.38 839.7 27 843.23 27 810C27 739.47 7.26 738.58 0 666C-6.24 603.58 0 603 0 540C0 405 0 405 0 270C0 135 -67.5 67.5 0 0C67.5 -67.5 135 0 270 0C382.23 0 429.3 -57.01 494.46 0" stroke="rgba(161, 161, 170, 1)" stroke-width="2"></path><path d="M1080 124.62C1029.34 124.62 980.53 203.48 980.53 270C980.53 320.13 1029.68 357.91 1080 357.91C1131.91 357.91 1185 320.51 1185 270C1185 203.86 1131.57 124.62 1080 124.62" stroke="rgba(161, 161, 170, 1)" stroke-width="2"></path><path d="M540 311.54C501.77 311.54 430 429.61 430 540C430 626.34 500.52 705 540 705C573.63 705 576.22 623.03 576.22 540C576.22 426.3 574.88 311.54 540 311.54" stroke="rgba(161, 161, 170, 1)" stroke-width="2"></path><path d="M1620 707.73C1573.27 707.73 1522.17 759.05 1522.17 810C1522.17 860.56 1573.24 910.75 1620 910.75C1663.32 910.75 1702.32 860.53 1702.32 810C1702.32 759.02 1663.35 707.73 1620 707.73" stroke="rgba(161, 161, 170, 1)" stroke-width="2"></path><path d="M413.13 0C472.57 88.53 485.96 149.71 451.29 270C414.39 398.02 386.35 447.88 270 496.61C160.7 542.38 79.73 525.91 0 459C-55.27 412.61 0 364.5 0 270C0 135 -67.5 67.5 0 0C67.5 -67.5 135 0 270 0C341.57 0 381.93 -46.47 413.13 0" stroke="rgba(161, 161, 170, 1)" stroke-width="2"></path><path d="M1350 229.5C1243.36 178.15 1197 73.81 1197 0C1197 -40.94 1273.5 0 1350 0C1485 0 1485 0 1620 0C1682.42 0 1696.11 -30.08 1744.84 0C1831.11 53.25 1813.22 166.67 1890 166.67C1974.62 166.67 1969.75 60.42 2067.63 0C2104.75 -22.91 2146.62 -32.8 2160 0C2192.8 80.42 2174.95 118.78 2160 226.45C2156.2 253.78 2122.5 243.51 2122.5 270C2122.5 349.66 2148.18 353.61 2160 438.75C2166.93 488.61 2160 489.38 2160 540C2160 675 2160 675 2160 810C2160 945 2226.72 1011.72 2160 1080C2094.79 1146.72 2026.1 1083.94 1896.14 1080C1891.1 1079.85 1891.95 1076.54 1890 1071.82C1836.19 941.54 1854.57 930.8 1784.63 810C1719.57 697.61 1706.69 605.45 1620 605.45C1526.55 605.45 1424.35 708.09 1424.35 810C1424.35 911.11 1503.86 941.91 1620 1011.49C1729.19 1076.91 1875 1062.57 1875 1080C1875 1096.83 1747.5 1080 1620 1080C1485 1080 1485 1080 1350 1080C1215 1080 1215 1080 1080 1080C945 1080 945 1080 810 1080C774.47 1080 738.95 1103.97 738.95 1080C738.95 1015.93 741.24 923.7 810 903.91C911.76 874.61 977.02 1010.04 1080 981.82C1148.37 963.09 1152.69 895.91 1152.69 810C1152.69 724.09 1145.64 645.84 1080 638.18C974.29 625.84 919.95 795.61 810 770C709.22 746.52 658.54 657.34 658.54 540C658.54 410.21 713.52 281.49 810 275.74C924.25 268.93 940.74 505.92 1080 514.88C1210.74 523.3 1202.97 342.87 1350 310.5C1472.97 283.43 1504.67 409.19 1620 396C1681.67 388.94 1704 326.34 1704 270C1704 230.18 1670.08 209.41 1620 203.68C1493.08 189.16 1454.86 279.99 1350 229.5" stroke="rgba(161, 161, 170, 1)" stroke-width="2"></path><path d="M111.38 810C111.38 707.07 184.99 583.39 270 583.39C361.92 583.39 465.23 709.44 465.23 810C465.23 889.53 364.28 943.58 270 943.58C187.35 943.58 111.38 887.17 111.38 810" stroke="rgba(161, 161, 170, 1)" stroke-width="2"></path><path d="M0 1072.06C1.51 1072.06 5.51 1077.47 5.51 1080C5.51 1081.44 1.13 1081.63 0 1080C-1.63 1077.66 -1.24 1072.06 0 1072.06" stroke="rgba(161, 161, 170, 1)" stroke-width="2"></path><path d="M331.81 0C366.36 109.93 375.45 144.75 354.86 270C344.54 332.79 329.15 363.32 270 376.07C151.72 401.57 105.33 387.88 0 346.5C-29.67 334.85 0 308.25 0 270C0 135 -67.5 67.5 0 0C67.5 -67.5 135 0 270 0C300.9 0 323.93 -25.07 331.81 0" stroke="rgba(161, 161, 170, 1)" stroke-width="2"></path><path d="M1620 85.26C1539.56 85.26 1433.08 22.32 1433.08 0C1433.08 -20.31 1526.54 0 1620 0C1646.13 0 1672.26 -14.63 1672.26 0C1672.26 28 1659.15 85.26 1620 85.26" stroke="rgba(161, 161, 170, 1)" stroke-width="2"></path><path d="M1854 270C1854 253.79 1871.56 250 1890 250C1912.06 250 1935 252.21 1935 270C1935 304.84 1910.66 355.26 1890 355.26C1870.16 355.26 1854 306.42 1854 270" stroke="rgba(161, 161, 170, 1)" stroke-width="2"></path><path d="M2160 8.71C2159.08 8.71 2156.45 3.16 2156.45 0C2156.45 -1.19 2159.49 -1.26 2160 0C2161.26 3.09 2160.85 8.71 2160 8.71" stroke="rgba(161, 161, 170, 1)" stroke-width="2"></path><path d="M740.85 540C740.85 480.75 765.66 419.36 810 419.36C867.73 419.36 945 481.98 945 540C945 594.8 868.83 645 810 645C766.75 645 740.85 593.57 740.85 540" stroke="rgba(161, 161, 170, 1)" stroke-width="2"></path><path d="M195.75 810C195.75 761.82 230.21 703.93 270 703.93C313.03 703.93 361.38 762.93 361.38 810C361.38 847.23 314.13 872.53 270 872.53C231.31 872.53 195.75 846.12 195.75 810" stroke="rgba(161, 161, 170, 1)" stroke-width="2"></path><path d="M1866.95 810C1866.95 763.58 1865.24 715.5 1890 715.5C1924.02 715.5 1984.5 768.46 1984.5 810C1984.5 844.35 1927.71 867.27 1890 867.27C1868.93 867.27 1866.95 839.46 1866.95 810" stroke="rgba(161, 161, 170, 1)" stroke-width="2"></path><path d="M1282.5 1080C1282.5 1028.85 1306.03 934.62 1350 934.62C1402.78 934.62 1476 1036.08 1476 1080C1476 1108.77 1413 1080 1350 1080C1316.25 1080 1282.5 1101.54 1282.5 1080" stroke="rgba(161, 161, 170, 1)" stroke-width="2"></path><path d="M2049.55 1080C2049.55 1030.26 2129.61 923.23 2160 923.23C2184.84 923.23 2192.4 1034.01 2160 1080C2137.17 1112.4 2049.55 1108.65 2049.55 1080" stroke="rgba(161, 161, 170, 1)" stroke-width="2"></path></g><defs><mask id="SvgjsMask1002"><rect width="1920" height="1080" fill="#ffffff"></rect></mask></defs></svg>