<svg xmlns="http://www.w3.org/2000/svg" version="1.1" xmlns:xlink="http://www.w3.org/1999/xlink" xmlns:svgjs="http://svgjs.com/svgjs" width="1920" height="1080" preserveAspectRatio="none" viewBox="0 0 1920 1080"><g mask="url(&quot;#SvgjsMask1012&quot;)" fill="none"><rect width="1920" height="1080" x="0" y="0" fill="rgba(9, 9, 11, 1)"></rect><path d="M452.43 0C515.7 31.64 473.81 101.68 540 135C652.59 191.68 713.14 219.93 810 180C876.86 152.43 803.92 42.35 867.45 0C938.92 -47.65 973.72 0 1080 0C1184.07 0 1194.38 -23.44 1288.13 0C1329.38 10.31 1308.64 66.1 1350 67.5C1474.58 71.72 1487.8 43.44 1620 11.25C1626.4 9.69 1620.67 0.27 1627.2 0C1755.67 -5.35 1758.6 0 1890 0C2025 0 2084.35 -59.35 2160 0C2219.35 46.57 2219.24 160.37 2160 211.85C2084.24 277.69 2020.68 211.05 1890 234.64C1859.63 240.12 1837.89 249.61 1837.89 270C1837.89 294.29 1855.04 316.11 1890 324C2016.09 352.46 2081.92 280.23 2160 342.69C2216.92 388.23 2160 441.35 2160 540C2160 675 2160 675 2160 810C2160 945 2227.5 1012.5 2160 1080C2092.5 1147.5 2025 1080 1890 1080C1755 1080 1755 1080 1620 1080C1507.5 1080 1395 1127.15 1395 1080C1395 1012.75 1502.66 959.5 1620 851.19C1648.91 824.5 1687.5 842.94 1687.5 810C1687.5 721.09 1689.4 619.7 1620 607.5C1520.65 590.03 1479.83 671.83 1350 750.66C1313.07 773.08 1295.35 769.91 1286.47 810C1258.87 934.58 1336.73 1001.93 1277.03 1080C1233.49 1136.93 1178.51 1080 1080 1080C945 1080 945 1080 810 1080C675 1080 675 1080 540 1080C405 1080 405 1080 270 1080C135 1080 78.2 1136.8 0 1080C-56.8 1038.74 -56.3 934.71 0 883.89C78.7 812.84 134.57 839.08 270 836.25C404.57 833.44 416.42 882.76 540 872.61C576.25 869.63 589.66 839.88 589.66 810C589.66 783.74 572.46 771 540 760.34C412.63 718.5 380.5 769.07 270 705C190.5 658.9 229.75 606.88 160 540C94.75 477.43 41.04 515.35 0 446.09C-38.96 380.35 0 358.04 0 270C0 135 -67.5 67.5 0 0C67.5 -67.5 135 0 270 0C361.22 0 380.7 -35.86 452.43 0" stroke="rgba(24, 24, 27, 1)" stroke-width="2"></path><path d="M0 120C89.54 30.46 160.45 -35.2 270 0C393.89 39.8 361.58 141.51 466.87 270C496.58 306.25 496.4 314.24 540 329.49C667.97 374.24 689.13 408.44 810 390C884.13 378.69 892.22 343.28 930 270C992.75 148.28 950.8 108.47 1011.06 0C1025.8 -26.53 1045.53 0 1080 0C1113.75 0 1122.68 -20.31 1147.5 0C1257.68 90.15 1227.59 181.56 1350 220.91C1463.84 257.5 1508.53 218.94 1620 151.88C1692.13 108.49 1648.26 38.78 1717.2 0C1783.26 -37.16 1803.6 0 1890 0C2025 0 2063.57 -38.57 2160 0C2198.57 15.43 2198.17 86.19 2160 108C2063.17 163.33 2015.7 108.06 1890 154.29C1795.44 189.06 1794.41 201.29 1719.47 270C1659.41 325.07 1666.95 334 1620 401.86C1573.54 469 1589.02 482.67 1532.65 540C1454.02 619.98 1437.62 603.82 1350 676.48C1274.83 738.82 1258.24 729.15 1207.06 810C1130.53 930.91 1155.1 951.41 1094.59 1080C1091.57 1086.41 1087.3 1080 1080 1080C945 1080 945 1080 810 1080C675 1080 675 1080 540 1080C405 1080 405 1080 270 1080C135 1080 92.27 1122.73 0 1080C-42.73 1060.21 -42.61 978.62 0 954.95C92.39 903.62 135.46 926.14 270 930C405.46 933.88 426.5 1004.72 540 970.43C625.12 944.72 667.24 886.56 667.24 810C667.24 742.72 609.71 739.07 540 682.76C442.59 604.07 429.7 618.76 333 540C294.7 508.81 309.93 491.72 270 462.86C143.43 371.39 123.52 387.58 0 299.35C-11.48 291.15 0 284.67 0 270C0 195 -45.46 165.46 0 120" stroke="rgba(24, 24, 27, 1)" stroke-width="2"></path><path d="M1764.88 540C1767.49 476.68 1817.84 459.06 1890 446.73C2015.4 425.31 2051.9 435.16 2160 472.5C2186.9 481.79 2160 506.25 2160 540C2160 675 2160 675 2160 810C2160 945 2222.53 1007.53 2160 1080C2106.06 1142.53 1997.54 1134.82 1927.06 1080C1862.54 1029.82 1910.18 974.65 1890 870C1884.15 839.65 1885.95 838.87 1875 810C1823.39 673.87 1759.99 658.31 1764.88 540" stroke="rgba(24, 24, 27, 1)" stroke-width="2"></path><path d="M1507.5 1080C1507.5 1046.37 1555.2 965.59 1620 965.59C1716.92 965.59 1830.94 1049.56 1830.94 1080C1830.94 1106.76 1725.47 1080 1620 1080C1563.75 1080 1507.5 1103.58 1507.5 1080" stroke="rgba(24, 24, 27, 1)" stroke-width="2"></path><path d="M180 270C180 235.02 229.5 192.86 270 192.86C302.62 192.86 326.25 233.77 326.25 270C326.25 299.89 301.25 325.1 270 325.1C228.12 325.1 180 301.14 180 270" stroke="rgba(24, 24, 27, 1)" stroke-width="2"></path><path d="M1890 73.93C1839.78 73.34 1807.2 21.17 1807.2 0C1807.2 -15.79 1848.6 0 1890 0C2025 0 2027.04 -2.04 2160 0C2162.04 0.03 2161.98 3.61 2160 4.15C2026.98 40.57 2016.18 75.41 1890 73.93" stroke="rgba(24, 24, 27, 1)" stroke-width="2"></path><path d="M445.5 540C445.5 496.45 481.71 443.9 540 443.9C663.96 443.9 810 499.05 810 540C810 579.69 668.95 605.17 540 605.17C486.7 605.17 445.5 577.09 445.5 540" stroke="rgba(24, 24, 27, 1)" stroke-width="2"></path><path d="M1192.5 540C1192.5 480.61 1282.63 390.79 1350 390.79C1403.07 390.79 1433.38 474.27 1433.38 540C1433.38 580.03 1395.84 602.31 1350 602.31C1275.4 602.31 1192.5 586.37 1192.5 540" stroke="rgba(24, 24, 27, 1)" stroke-width="2"></path><path d="M744.83 810C744.83 678.94 729.69 572.35 810 540C897.28 504.85 972.27 583.43 1080 675C1131.09 718.43 1127.65 743.47 1127.65 810C1127.65 864.26 1127.86 897.6 1080 916.58C969.03 960.6 919.96 970.97 810 936C752.38 917.68 744.83 876.94 744.83 810" stroke="rgba(24, 24, 27, 1)" stroke-width="2"></path><path d="M0 1026C112.5 1002.56 135.9 1013.26 270 1023.75C405.9 1034.39 405.8 1043.1 540 1068.26C555.8 1071.22 570 1076.96 570 1080C570 1082.83 555 1080 540 1080C405 1080 405 1080 270 1080C135 1080 112.5 1102.5 0 1080C-22.5 1075.5 -22.5 1030.69 0 1026" stroke="rgba(24, 24, 27, 1)" stroke-width="2"></path><path d="M2059.41 1080C2059.41 1005.04 2133.6 866.25 2160 866.25C2183.89 866.25 2194.2 1007.33 2160 1080C2143.91 1114.2 2059.41 1111.92 2059.41 1080" stroke="rgba(24, 24, 27, 1)" stroke-width="2"></path></g><defs><mask id="SvgjsMask1012"><rect width="1920" height="1080" fill="#ffffff"></rect></mask></defs></svg>