<svg xmlns="http://www.w3.org/2000/svg" version="1.1" xmlns:xlink="http://www.w3.org/1999/xlink" xmlns:svgjs="http://svgjs.com/svgjs" width="1920" height="1080" preserveAspectRatio="none" viewBox="0 0 1920 1080"><g mask="url(&quot;#SvgjsMask1015&quot;)" fill="none"><rect width="1920" height="1080" x="0" y="0" fill="rgba(24, 24, 27, 1)"></rect><path d="M19.29 270C19.29 238.52 2.31 239.96 0 207.69C-7.34 104.96 -58.7 45.15 0 0C76.3 -58.7 135 0 270 0C367.33 0 417.88 -56.36 464.65 0C529.9 78.64 462.53 145.94 494.04 270C500.2 294.27 517.77 296.67 540 296.67C558.75 296.67 560.15 285.78 576 270C695.15 151.41 693.67 149.58 810 27.93C822.76 14.58 816.54 1.82 834.18 0C951.54 -12.14 957.09 0 1080 0C1215 0 1215 0 1350 0C1387.8 0 1402.22 -25.94 1425.6 0C1523.94 109.06 1611.59 146.75 1593.44 270C1573.79 403.47 1470.84 390.9 1350 513.44C1337.71 525.9 1327.18 524.8 1327.18 540C1327.18 567.01 1322.71 589.81 1350 597.86C1469.12 633.01 1485.85 632.21 1620 626.4C1755.85 620.52 1759.55 610.39 1890 574.47C1916.44 567.19 1933.78 565.76 1933.78 540C1933.78 413.53 1911.89 405 1890 270C1890 270 1890 270 1890 270C1782.93 135 1675.86 83.26 1675.86 0C1675.86 -51.74 1782.93 0 1890 0C2025 0 2092.5 -67.5 2160 0C2227.5 67.5 2160 135 2160 270C2160 405 2160 405 2160 540C2160 675 2160 675 2160 810C2160 945 2227.5 1012.5 2160 1080C2092.5 1147.5 2025 1080 1890 1080C1755 1080 1755 1080 1620 1080C1485 1080 1485 1080 1350 1080C1282.5 1080 1254.08 1122.63 1215 1080C1130.33 987.63 1164.9 938.53 1102.5 810C1097.4 799.5 1091.81 803.59 1080 801.94C945.56 783.14 933.74 765.63 810 769.09C789.62 769.66 791.76 791.23 791.76 810C791.76 820.81 801.69 818.38 810 828.24C915.48 953.38 1019.33 1003.21 1019.33 1080C1019.33 1129.09 914.66 1080 810 1080C705.34 1080 696.42 1101.52 600.67 1080C561.42 1071.18 572.25 1019.33 540 1019.33C502.78 1019.33 507.72 1069.67 461.74 1080C372.72 1100 365.87 1080 270 1080C135 1080 84.38 1130.63 0 1080C-50.63 1049.63 -19.48 993.25 0 918C15.46 858.25 69.88 868.31 69.88 810C69.88 711.9 26.85 708.93 0 605.17C-8.09 573.93 0 572.59 0 540C0 445.5 -6.7 444.71 0 351C2.95 309.71 19.29 310.18 19.29 270" stroke="rgba(9, 9, 11, 1)" stroke-width="2"></path><path d="M270 484.9C200.7 484.9 111.18 516.63 111.18 540C111.18 562.67 196.52 576.99 270 576.99C292.2 576.99 302.53 560.03 302.53 540C302.53 513.98 296.38 484.9 270 484.9" stroke="rgba(9, 9, 11, 1)" stroke-width="2"></path><path d="M180 270C111.9 146.96 50.86 81.05 77.88 0C95.86 -53.95 173.94 0 270 0C328.08 0 374.14 -40.36 386.16 0C414.35 94.64 391.65 146.83 350.43 270C333.57 320.4 311.29 347.14 270 347.14C226.08 347.14 207.96 320.53 180 270" stroke="rgba(9, 9, 11, 1)" stroke-width="2"></path><path d="M688.5 270C754.13 212.71 751.1 208.85 810 144.31C874.31 73.85 858.23 41 934.93 0C993.23 -31.16 1007.47 0 1080 0C1170 0 1182.97 -28.89 1260 0C1317.97 21.74 1306.91 49.03 1350 101.25C1418.3 184.03 1482.79 189.57 1482.79 270C1482.79 340.34 1413.84 334.03 1350 402.79C1288.5 469.03 1292.78 472.95 1232.11 540C1157.78 622.15 1169.23 696 1080 701.19C958.17 708.28 910.49 535.74 810 564.55C720.76 590.14 700.54 697.4 700.54 810C700.54 874.86 758.28 861.98 810 919.46C879.75 996.98 943.48 1031.03 943.48 1080C943.48 1111.3 876.74 1080 810 1080C743.26 1080 731.7 1107.9 676.52 1080C596.7 1039.64 612.56 943.48 540 943.48C456.26 943.48 458.88 1031.98 363.91 1080C323.88 1100.24 316.96 1080 270 1080C135 1080 117.86 1097.14 0 1080C-17.14 1077.51 -9.33 1057.61 0 1040.73C65.31 922.61 68.65 920.89 149.29 810C203.65 735.25 209.25 739.38 270 669.45C326.53 604.38 325.08 603.01 383.86 540C460.08 458.29 456.61 453.91 540 380C608.93 318.91 619.13 330.56 688.5 270" stroke="rgba(9, 9, 11, 1)" stroke-width="2"></path><path d="M1890 172.17C1814.96 92.71 1753.45 53.09 1753.45 0C1753.45 -32.99 1821.72 0 1890 0C2025 0 2092.5 -67.5 2160 0C2227.5 67.5 2160 135 2160 270C2160 405 2160 405 2160 540C2160 675 2160 675 2160 810C2160 945 2217.12 1002.12 2160 1080C2118.12 1137.12 2041.96 1114.27 1962 1080C1906.96 1056.41 1929.42 964.29 1890 964.29C1847.14 964.29 1858.87 1053.67 1797.43 1080C1723.87 1111.53 1708.72 1080 1620 1080C1509.11 1080 1443.81 1140.8 1398.21 1080C1342.56 1005.8 1354.82 900.03 1417.5 810C1465.72 740.73 1517.86 781.27 1620 761.4C1754.11 735.31 1769.14 772.01 1890 718.09C2017.25 661.31 2086.76 651.48 2116.22 540C2145.97 427.43 2082.43 390.34 2008.42 270C1969.32 206.42 1942.45 227.71 1890 172.17" stroke="rgba(9, 9, 11, 1)" stroke-width="2"></path><path d="M270 140.87C244.32 140.87 207.69 50.15 207.69 0C207.69 -20.29 238.85 0 270 0C288.84 0 307.67 -14.46 307.67 0C307.67 55.97 294.31 140.87 270 140.87" stroke="rgba(9, 9, 11, 1)" stroke-width="2"></path><path d="M801 270C801 264.46 803.62 260.69 810 260.69C943.12 260.69 1080 262.06 1080 270C1080 277.96 938.05 292.5 810 292.5C798.55 292.5 801 280.37 801 270" stroke="rgba(9, 9, 11, 1)" stroke-width="2"></path><path d="M1080 270C1055.25 270 1035.67 116.18 1035.67 0C1035.67 -18.82 1057.84 0 1080 0C1107.5 0 1135 -22.46 1135 0C1135 112.54 1104.92 270 1080 270" stroke="rgba(9, 9, 11, 1)" stroke-width="2"></path><path d="M1080 270C1080 257.42 1220.95 241.88 1350 241.88C1367.01 241.88 1372.13 256.6 1372.13 270C1372.13 281.72 1365.13 292.13 1350 292.13C1219.06 292.13 1080 282.55 1080 270" stroke="rgba(9, 9, 11, 1)" stroke-width="2"></path><path d="M1890 74.35C1849.71 74.35 1831.03 22.93 1831.03 0C1831.03 -14.25 1860.51 0 1890 0C1996.88 0 2103.75 -18.06 2103.75 0C2103.75 19.12 1986.07 74.35 1890 74.35" stroke="rgba(9, 9, 11, 1)" stroke-width="2"></path><path d="M2126.84 270C2126.84 193.09 2151.62 112.5 2160 112.5C2168.2 112.5 2160 191.25 2160 270C2160 306.35 2167.9 342.69 2160 342.69C2151.32 342.69 2126.84 308.18 2126.84 270" stroke="rgba(9, 9, 11, 1)" stroke-width="2"></path><path d="M465.18 540C501.1 500.28 496.98 463.33 540 463.33C603.39 463.33 665.46 477.31 678 540C700.12 650.64 661.45 686.23 609.32 810C592.45 850.05 576.24 840.87 540 867.64C406.58 966.22 358.16 1077.03 270 1060.71C202.51 1048.21 228.71 929.57 228.71 810C228.71 780.18 249.12 785.76 270 761.92C367.36 650.76 366.1 649.58 465.18 540" stroke="rgba(9, 9, 11, 1)" stroke-width="2"></path><path d="M970.54 540C970.54 424.39 1037.25 270 1080 270C1120.5 270 1137.04 413.02 1137.04 540C1137.04 578.24 1113.24 600.45 1080 600.45C1029.99 600.45 970.54 589.62 970.54 540" stroke="rgba(9, 9, 11, 1)" stroke-width="2"></path><path d="M752.36 1080C752.36 1058.86 781.18 1010.68 810 1010.68C838.82 1010.68 867.64 1058.86 867.64 1080C867.64 1093.52 838.82 1080 810 1080C781.18 1080 752.36 1093.52 752.36 1080" stroke="rgba(9, 9, 11, 1)" stroke-width="2"></path><path d="M2112 1080C2112 1020.52 2147.72 925.71 2160 925.71C2171.72 925.71 2178.31 1021.16 2160 1080C2154.31 1098.31 2112 1097.67 2112 1080" stroke="rgba(9, 9, 11, 1)" stroke-width="2"></path></g><defs><mask id="SvgjsMask1015"><rect width="1920" height="1080" fill="#ffffff"></rect></mask></defs></svg>